<?xml version="1.0" encoding="UTF-8"?>
<svg xmlns="http://www.w3.org/2000/svg" width="24" height="24" viewBox="0 0 24 24" fill="none"><path fill-rule="evenodd" clip-rule="evenodd" d="M12 5.3335C8.85734 5.3335 7.286 5.3335 6.30968 6.30981C5.33337 7.28612 5.33337 8.85747 5.33337 12.0002C5.33337 15.1429 5.33337 16.7142 6.30968 17.6905C7.286 18.6668 8.85734 18.6668 12 18.6668C15.1427 18.6668 16.7141 18.6668 17.6904 17.6905C18.6667 16.7142 18.6667 15.1429 18.6667 12.0002C18.6667 8.85747 18.6667 7.28612 17.6904 6.30981C16.7141 5.3335 15.1427 5.3335 12 5.3335ZM12 8.16683C12.2762 8.16683 12.5 8.39069 12.5 8.66683V12.6668C12.5 12.943 12.2762 13.1668 12 13.1668C11.7239 13.1668 11.5 12.943 11.5 12.6668V8.66683C11.5 8.39069 11.7239 8.16683 12 8.16683ZM12 15.3335C12.3682 15.3335 12.6667 15.035 12.6667 14.6668C12.6667 14.2986 12.3682 14.0002 12 14.0002C11.6319 14.0002 11.3334 14.2986 11.3334 14.6668C11.3334 15.035 11.6319 15.3335 12 15.3335Z" fill="#8B7400"/></svg>